<svg width="57" height="24" viewBox="0 0 57 24" fill="none" xmlns="http://www.w3.org/2000/svg">
<path fill-rule="evenodd" clip-rule="evenodd" d="M11.6648 18.6316L5.73341 21.881C5.25984 22.1271 4.67641 21.9529 4.41533 21.4874C4.3398 21.3432 4.29905 21.1834 4.29634 21.0206V6.62243C4.29634 3.87643 6.17277 2.77803 8.873 2.77803H15.2162C17.8341 2.77803 19.7929 3.8032 19.7929 6.43936V21.0206C19.7929 21.2803 19.6897 21.5295 19.506 21.7131C19.3224 21.8968 19.0733 22 18.8135 22C18.6478 21.9974 18.485 21.9567 18.3375 21.881L12.3696 18.6316C12.1496 18.5128 11.8847 18.5128 11.6648 18.6316Z" stroke="black" stroke-width="1.5" stroke-linecap="round" stroke-linejoin="round"/>
<path d="M8.37 9.323H15.665" stroke="black" stroke-width="1.5" stroke-linecap="round" stroke-linejoin="round"/>
<path d="M25.7012 3.94922C26.375 3.94922 26.9089 4.09408 27.3027 4.38379C27.6999 4.6735 27.8984 5.10482 27.8984 5.67773C27.8984 6.52409 27.4997 7.07422 26.7021 7.32812C27.1676 7.46159 27.5208 7.66504 27.7617 7.93848C28.0059 8.21191 28.1279 8.54232 28.1279 8.92969C28.1279 10.3099 27.262 11 25.5303 11H22.3516V10.1504L23.0986 9.84766V5.15039L22.3516 4.84766V3.99805L24.6514 3.94922H25.7012ZM25.2324 6.83008C25.597 6.83008 25.8737 6.75195 26.0625 6.5957C26.2546 6.43945 26.3506 6.20833 26.3506 5.90234C26.3506 5.65495 26.2725 5.46777 26.1162 5.34082C25.96 5.21387 25.7549 5.15039 25.501 5.15039H24.6514V6.83008H25.2324ZM25.4814 9.79883C25.8265 9.79883 26.0902 9.72396 26.2725 9.57422C26.458 9.42448 26.5508 9.20964 26.5508 8.92969C26.5508 8.56836 26.4434 8.30306 26.2285 8.13379C26.0169 7.96452 25.6849 7.87988 25.2324 7.87988H24.6514V9.79883H25.4814ZM31.6338 5.50195C32.4378 5.50195 33.0579 5.73633 33.4941 6.20508C33.9336 6.67383 34.1533 7.33952 34.1533 8.20215C34.1533 8.7946 34.0426 9.30892 33.8213 9.74512C33.6032 10.1813 33.2939 10.5166 32.8936 10.751C32.4932 10.9821 32.0228 11.0977 31.4824 11.0977C29.7832 11.0977 28.9336 10.1813 28.9336 8.34863C28.9336 7.75618 29.0443 7.24674 29.2656 6.82031C29.4902 6.39388 29.806 6.06836 30.2129 5.84375C30.6198 5.61589 31.0934 5.50195 31.6338 5.50195ZM31.5801 6.69824C31.2025 6.69824 30.9242 6.82031 30.7451 7.06445C30.5693 7.30859 30.4814 7.72038 30.4814 8.2998C30.4814 8.85319 30.5645 9.25846 30.7305 9.51562C30.8997 9.77279 31.1667 9.90137 31.5312 9.90137C31.8991 9.90137 32.1693 9.77279 32.3418 9.51562C32.5143 9.25846 32.6006 8.83691 32.6006 8.25098C32.6006 7.73014 32.5192 7.34115 32.3564 7.08398C32.1937 6.82682 31.9349 6.69824 31.5801 6.69824ZM37.5518 5.50195C38.3558 5.50195 38.9759 5.73633 39.4121 6.20508C39.8516 6.67383 40.0713 7.33952 40.0713 8.20215C40.0713 8.7946 39.9606 9.30892 39.7393 9.74512C39.5212 10.1813 39.2119 10.5166 38.8115 10.751C38.4111 10.9821 37.9408 11.0977 37.4004 11.0977C35.7012 11.0977 34.8516 10.1813 34.8516 8.34863C34.8516 7.75618 34.9622 7.24674 35.1836 6.82031C35.4082 6.39388 35.724 6.06836 36.1309 5.84375C36.5378 5.61589 37.0114 5.50195 37.5518 5.50195ZM37.498 6.69824C37.1204 6.69824 36.8421 6.82031 36.6631 7.06445C36.4873 7.30859 36.3994 7.72038 36.3994 8.2998C36.3994 8.85319 36.4824 9.25846 36.6484 9.51562C36.8177 9.77279 37.0846 9.90137 37.4492 9.90137C37.8171 9.90137 38.0872 9.77279 38.2598 9.51562C38.4323 9.25846 38.5186 8.83691 38.5186 8.25098C38.5186 7.73014 38.4372 7.34115 38.2744 7.08398C38.1117 6.82682 37.8529 6.69824 37.498 6.69824ZM43.5771 7.61133L44.2559 6.59082L43.8164 6.44922V5.64844L46.3994 5.59961V6.44922L45.6963 6.58105L44.7686 7.88965L45.8867 9.95996L46.6484 10.1992V11H44.7979L43.5576 8.55859H42.918V9.9502L43.4697 10.1992V11H40.6182V10.1992L41.4189 9.9502V4.33008L40.6182 4.12988V3.3291L42.918 3.25098V7.61133H43.5771ZM52.6787 10.3506C52.6787 10.3636 52.5924 10.4368 52.4199 10.5703C52.2474 10.7038 52.0407 10.8258 51.7998 10.9365C51.5589 11.0439 51.3115 11.0977 51.0576 11.0977C50.5693 11.0977 50.1868 10.9626 49.9102 10.6924C49.6367 10.4189 49.5 10.0316 49.5 9.53027C49.5 8.95736 49.7051 8.53906 50.1152 8.27539C50.5254 8.01172 51.1227 7.87988 51.9072 7.87988H52.6104V7.32812C52.6104 6.83984 52.3532 6.59733 51.8389 6.60059C51.6859 6.60059 51.5443 6.61198 51.4141 6.63477C51.2839 6.65755 51.1797 6.68197 51.1016 6.70801C51.0267 6.73079 50.9795 6.74544 50.96 6.75195L50.8086 7.38184H49.9102L49.8418 5.90234C49.9004 5.88281 50.0436 5.84049 50.2715 5.77539C50.5026 5.71029 50.7777 5.64844 51.0967 5.58984C51.4189 5.53125 51.7233 5.50195 52.0098 5.50195C52.5241 5.50195 52.9326 5.56706 53.2354 5.69727C53.5381 5.82422 53.7594 6.03255 53.8994 6.32227C54.0394 6.60872 54.1094 6.99447 54.1094 7.47949V9.9502L54.8613 10.1309V10.9316L52.8594 11L52.6787 10.3506ZM50.9502 9.37891C50.9502 9.57422 51.0007 9.72396 51.1016 9.82812C51.2057 9.92904 51.3522 9.97949 51.541 9.97949C51.7005 9.97949 51.8584 9.93717 52.0146 9.85254C52.1709 9.76465 52.3027 9.67513 52.4102 9.58398C52.5176 9.48958 52.5843 9.42773 52.6104 9.39844V8.72949H52.0391C51.6517 8.72949 51.3734 8.78158 51.2041 8.88574C51.0348 8.98991 50.9502 9.1543 50.9502 9.37891ZM22.3516 20.1504L23.0986 19.8477V15.1504L22.3516 14.8477V13.998L24.9297 13.9492L26.4287 17.2793L28.001 13.998L30.3984 13.9492V14.8477L29.6807 15.1504V19.8477L30.4277 20.1504V21H27.4492V20.1504L28.2305 19.8477V16.0879L27.9619 16.752L26.8291 19.1006L25.75 19.1494L24.5977 16.7812L24.4316 16.2588V19.8477L25.1982 20.1504V21H22.3516V20.1504ZM33.8311 15.502C34.6351 15.502 35.2552 15.7363 35.6914 16.2051C36.1309 16.6738 36.3506 17.3395 36.3506 18.2021C36.3506 18.7946 36.2399 19.3089 36.0186 19.7451C35.8005 20.1813 35.4912 20.5166 35.0908 20.751C34.6904 20.9821 34.2201 21.0977 33.6797 21.0977C31.9805 21.0977 31.1309 20.1813 31.1309 18.3486C31.1309 17.7562 31.2415 17.2467 31.4629 16.8203C31.6875 16.3939 32.0033 16.0684 32.4102 15.8438C32.8171 15.6159 33.2907 15.502 33.8311 15.502ZM33.7773 16.6982C33.3997 16.6982 33.1214 16.8203 32.9424 17.0645C32.7666 17.3086 32.6787 17.7204 32.6787 18.2998C32.6787 18.8532 32.7617 19.2585 32.9277 19.5156C33.097 19.7728 33.3639 19.9014 33.7285 19.9014C34.0964 19.9014 34.3665 19.7728 34.5391 19.5156C34.7116 19.2585 34.7979 18.8369 34.7979 18.251C34.7979 17.7301 34.7165 17.3411 34.5537 17.084C34.391 16.8268 34.1322 16.6982 33.7773 16.6982ZM39.8125 15.6484L42.4346 15.5996V16.4492L41.8633 16.5811L40.252 21H38.6016L37.0244 16.6104L36.541 16.4492V15.6484L39.1631 15.5996V16.4492L38.6016 16.5518L39.5098 19.501L40.3936 16.5811L39.8125 16.4492V15.6484ZM43.4502 13.9492C43.4502 13.6758 43.5348 13.4577 43.7041 13.2949C43.8734 13.1322 44.0752 13.0508 44.3096 13.0508C44.8695 13.0508 45.1494 13.3503 45.1494 13.9492C45.1494 14.2292 45.0632 14.4521 44.8906 14.6182C44.7214 14.7809 44.5277 14.8623 44.3096 14.8623C44.0361 14.8623 43.8245 14.7842 43.6748 14.6279C43.5251 14.4684 43.4502 14.2422 43.4502 13.9492ZM45.8281 20.1992V21H42.8301V20.1992L43.6309 19.9502V16.6982L42.8301 16.4492V15.6484L45.1299 15.5996V19.9502L45.8281 20.1992ZM48.04 18.6318C48.0661 19.0322 48.1865 19.3447 48.4014 19.5693C48.6195 19.7907 48.9027 19.9014 49.251 19.9014C49.4984 19.9014 49.7458 19.8672 49.9932 19.7988C50.2438 19.7272 50.4505 19.6556 50.6133 19.584C50.7793 19.5091 50.8851 19.457 50.9307 19.4277L51.3604 20.2578C51.3604 20.2708 51.2432 20.3538 51.0088 20.5068C50.7777 20.6566 50.4928 20.7933 50.1543 20.917C49.819 21.0374 49.4609 21.0977 49.0801 21.0977C48.2337 21.0977 47.5892 20.8633 47.1465 20.3945C46.7038 19.9258 46.4824 19.2617 46.4824 18.4023C46.4824 17.8229 46.5882 17.3151 46.7998 16.8789C47.0146 16.4395 47.3223 16.1009 47.7227 15.8633C48.123 15.6224 48.5983 15.502 49.1484 15.502C49.8809 15.502 50.4424 15.7119 50.833 16.1318C51.2236 16.5518 51.4189 17.1247 51.4189 17.8506C51.4189 18.0101 51.4108 18.1647 51.3945 18.3145C51.3783 18.4642 51.3669 18.5586 51.3604 18.5977L48.04 18.6318ZM49.0508 16.6982C48.7773 16.6982 48.5544 16.791 48.3818 16.9766C48.2093 17.1589 48.1019 17.3997 48.0596 17.6992H49.8711C49.8711 17.3997 49.8044 17.1589 49.6709 16.9766C49.5374 16.791 49.3307 16.6982 49.0508 16.6982Z" fill="black"/>
</svg>
