<svg width="60" height="24" viewBox="0 0 60 24" fill="none" xmlns="http://www.w3.org/2000/svg">
<path fill-rule="evenodd" clip-rule="evenodd" d="M11.6648 18.6316L5.73341 21.881C5.25984 22.1271 4.67641 21.9529 4.41533 21.4874C4.3398 21.3432 4.29905 21.1834 4.29634 21.0206V6.62243C4.29634 3.87643 6.17277 2.77803 8.873 2.77803H15.2162C17.8341 2.77803 19.7929 3.8032 19.7929 6.43936V21.0206C19.7929 21.2803 19.6897 21.5295 19.506 21.7131C19.3224 21.8968 19.0733 22 18.8135 22C18.6478 21.9974 18.485 21.9567 18.3375 21.881L12.3696 18.6316C12.1496 18.5128 11.8847 18.5128 11.6648 18.6316Z" stroke="white" stroke-width="1.5" stroke-linecap="round" stroke-linejoin="round"/>
<path d="M8.37 9.323H15.665" stroke="white" stroke-width="1.5" stroke-linecap="round" stroke-linejoin="round"/>
<path d="M28.7012 3.94922C29.375 3.94922 29.9089 4.09408 30.3027 4.38379C30.6999 4.6735 30.8984 5.10482 30.8984 5.67773C30.8984 6.52409 30.4997 7.07422 29.7021 7.32812C30.1676 7.46159 30.5208 7.66504 30.7617 7.93848C31.0059 8.21191 31.1279 8.54232 31.1279 8.92969C31.1279 10.3099 30.262 11 28.5303 11H25.3516V10.1504L26.0986 9.84766V5.15039L25.3516 4.84766V3.99805L27.6514 3.94922H28.7012ZM28.2324 6.83008C28.597 6.83008 28.8737 6.75195 29.0625 6.5957C29.2546 6.43945 29.3506 6.20833 29.3506 5.90234C29.3506 5.65495 29.2725 5.46777 29.1162 5.34082C28.96 5.21387 28.7549 5.15039 28.501 5.15039H27.6514V6.83008H28.2324ZM28.4814 9.79883C28.8265 9.79883 29.0902 9.72396 29.2725 9.57422C29.458 9.42448 29.5508 9.20964 29.5508 8.92969C29.5508 8.56836 29.4434 8.30306 29.2285 8.13379C29.0169 7.96452 28.6849 7.87988 28.2324 7.87988H27.6514V9.79883H28.4814ZM34.6338 5.50195C35.4378 5.50195 36.0579 5.73633 36.4941 6.20508C36.9336 6.67383 37.1533 7.33952 37.1533 8.20215C37.1533 8.7946 37.0426 9.30892 36.8213 9.74512C36.6032 10.1813 36.2939 10.5166 35.8936 10.751C35.4932 10.9821 35.0228 11.0977 34.4824 11.0977C32.7832 11.0977 31.9336 10.1813 31.9336 8.34863C31.9336 7.75618 32.0443 7.24674 32.2656 6.82031C32.4902 6.39388 32.806 6.06836 33.2129 5.84375C33.6198 5.61589 34.0934 5.50195 34.6338 5.50195ZM34.5801 6.69824C34.2025 6.69824 33.9242 6.82031 33.7451 7.06445C33.5693 7.30859 33.4814 7.72038 33.4814 8.2998C33.4814 8.85319 33.5645 9.25846 33.7305 9.51562C33.8997 9.77279 34.1667 9.90137 34.5312 9.90137C34.8991 9.90137 35.1693 9.77279 35.3418 9.51562C35.5143 9.25846 35.6006 8.83691 35.6006 8.25098C35.6006 7.73014 35.5192 7.34115 35.3564 7.08398C35.1937 6.82682 34.9349 6.69824 34.5801 6.69824ZM40.5518 5.50195C41.3558 5.50195 41.9759 5.73633 42.4121 6.20508C42.8516 6.67383 43.0713 7.33952 43.0713 8.20215C43.0713 8.7946 42.9606 9.30892 42.7393 9.74512C42.5212 10.1813 42.2119 10.5166 41.8115 10.751C41.4111 10.9821 40.9408 11.0977 40.4004 11.0977C38.7012 11.0977 37.8516 10.1813 37.8516 8.34863C37.8516 7.75618 37.9622 7.24674 38.1836 6.82031C38.4082 6.39388 38.724 6.06836 39.1309 5.84375C39.5378 5.61589 40.0114 5.50195 40.5518 5.50195ZM40.498 6.69824C40.1204 6.69824 39.8421 6.82031 39.6631 7.06445C39.4873 7.30859 39.3994 7.72038 39.3994 8.2998C39.3994 8.85319 39.4824 9.25846 39.6484 9.51562C39.8177 9.77279 40.0846 9.90137 40.4492 9.90137C40.8171 9.90137 41.0872 9.77279 41.2598 9.51562C41.4323 9.25846 41.5186 8.83691 41.5186 8.25098C41.5186 7.73014 41.4372 7.34115 41.2744 7.08398C41.1117 6.82682 40.8529 6.69824 40.498 6.69824ZM46.5771 7.61133L47.2559 6.59082L46.8164 6.44922V5.64844L49.3994 5.59961V6.44922L48.6963 6.58105L47.7686 7.88965L48.8867 9.95996L49.6484 10.1992V11H47.7979L46.5576 8.55859H45.918V9.9502L46.4697 10.1992V11H43.6182V10.1992L44.4189 9.9502V4.33008L43.6182 4.12988V3.3291L45.918 3.25098V7.61133H46.5771ZM55.6787 10.3506C55.6787 10.3636 55.5924 10.4368 55.4199 10.5703C55.2474 10.7038 55.0407 10.8258 54.7998 10.9365C54.5589 11.0439 54.3115 11.0977 54.0576 11.0977C53.5693 11.0977 53.1868 10.9626 52.9102 10.6924C52.6367 10.4189 52.5 10.0316 52.5 9.53027C52.5 8.95736 52.7051 8.53906 53.1152 8.27539C53.5254 8.01172 54.1227 7.87988 54.9072 7.87988H55.6104V7.32812C55.6104 6.83984 55.3532 6.59733 54.8389 6.60059C54.6859 6.60059 54.5443 6.61198 54.4141 6.63477C54.2839 6.65755 54.1797 6.68197 54.1016 6.70801C54.0267 6.73079 53.9795 6.74544 53.96 6.75195L53.8086 7.38184H52.9102L52.8418 5.90234C52.9004 5.88281 53.0436 5.84049 53.2715 5.77539C53.5026 5.71029 53.7777 5.64844 54.0967 5.58984C54.4189 5.53125 54.7233 5.50195 55.0098 5.50195C55.5241 5.50195 55.9326 5.56706 56.2354 5.69727C56.5381 5.82422 56.7594 6.03255 56.8994 6.32227C57.0394 6.60872 57.1094 6.99447 57.1094 7.47949V9.9502L57.8613 10.1309V10.9316L55.8594 11L55.6787 10.3506ZM53.9502 9.37891C53.9502 9.57422 54.0007 9.72396 54.1016 9.82812C54.2057 9.92904 54.3522 9.97949 54.541 9.97949C54.7005 9.97949 54.8584 9.93717 55.0146 9.85254C55.1709 9.76465 55.3027 9.67513 55.4102 9.58398C55.5176 9.48958 55.5843 9.42773 55.6104 9.39844V8.72949H55.0391C54.6517 8.72949 54.3734 8.78158 54.2041 8.88574C54.0348 8.98991 53.9502 9.1543 53.9502 9.37891ZM25.3516 20.1504L26.0986 19.8477V15.1504L25.3516 14.8477V13.998L27.9297 13.9492L29.4287 17.2793L31.001 13.998L33.3984 13.9492V14.8477L32.6807 15.1504V19.8477L33.4277 20.1504V21H30.4492V20.1504L31.2305 19.8477V16.0879L30.9619 16.752L29.8291 19.1006L28.75 19.1494L27.5977 16.7812L27.4316 16.2588V19.8477L28.1982 20.1504V21H25.3516V20.1504ZM36.8311 15.502C37.6351 15.502 38.2552 15.7363 38.6914 16.2051C39.1309 16.6738 39.3506 17.3395 39.3506 18.2021C39.3506 18.7946 39.2399 19.3089 39.0186 19.7451C38.8005 20.1813 38.4912 20.5166 38.0908 20.751C37.6904 20.9821 37.2201 21.0977 36.6797 21.0977C34.9805 21.0977 34.1309 20.1813 34.1309 18.3486C34.1309 17.7562 34.2415 17.2467 34.4629 16.8203C34.6875 16.3939 35.0033 16.0684 35.4102 15.8438C35.8171 15.6159 36.2907 15.502 36.8311 15.502ZM36.7773 16.6982C36.3997 16.6982 36.1214 16.8203 35.9424 17.0645C35.7666 17.3086 35.6787 17.7204 35.6787 18.2998C35.6787 18.8532 35.7617 19.2585 35.9277 19.5156C36.097 19.7728 36.3639 19.9014 36.7285 19.9014C37.0964 19.9014 37.3665 19.7728 37.5391 19.5156C37.7116 19.2585 37.7979 18.8369 37.7979 18.251C37.7979 17.7301 37.7165 17.3411 37.5537 17.084C37.391 16.8268 37.1322 16.6982 36.7773 16.6982ZM42.8125 15.6484L45.4346 15.5996V16.4492L44.8633 16.5811L43.252 21H41.6016L40.0244 16.6104L39.541 16.4492V15.6484L42.1631 15.5996V16.4492L41.6016 16.5518L42.5098 19.501L43.3936 16.5811L42.8125 16.4492V15.6484ZM46.4502 13.9492C46.4502 13.6758 46.5348 13.4577 46.7041 13.2949C46.8734 13.1322 47.0752 13.0508 47.3096 13.0508C47.8695 13.0508 48.1494 13.3503 48.1494 13.9492C48.1494 14.2292 48.0632 14.4521 47.8906 14.6182C47.7214 14.7809 47.5277 14.8623 47.3096 14.8623C47.0361 14.8623 46.8245 14.7842 46.6748 14.6279C46.5251 14.4684 46.4502 14.2422 46.4502 13.9492ZM48.8281 20.1992V21H45.8301V20.1992L46.6309 19.9502V16.6982L45.8301 16.4492V15.6484L48.1299 15.5996V19.9502L48.8281 20.1992ZM51.04 18.6318C51.0661 19.0322 51.1865 19.3447 51.4014 19.5693C51.6195 19.7907 51.9027 19.9014 52.251 19.9014C52.4984 19.9014 52.7458 19.8672 52.9932 19.7988C53.2438 19.7272 53.4505 19.6556 53.6133 19.584C53.7793 19.5091 53.8851 19.457 53.9307 19.4277L54.3604 20.2578C54.3604 20.2708 54.2432 20.3538 54.0088 20.5068C53.7777 20.6566 53.4928 20.7933 53.1543 20.917C52.819 21.0374 52.4609 21.0977 52.0801 21.0977C51.2337 21.0977 50.5892 20.8633 50.1465 20.3945C49.7038 19.9258 49.4824 19.2617 49.4824 18.4023C49.4824 17.8229 49.5882 17.3151 49.7998 16.8789C50.0146 16.4395 50.3223 16.1009 50.7227 15.8633C51.123 15.6224 51.5983 15.502 52.1484 15.502C52.8809 15.502 53.4424 15.7119 53.833 16.1318C54.2236 16.5518 54.4189 17.1247 54.4189 17.8506C54.4189 18.0101 54.4108 18.1647 54.3945 18.3145C54.3783 18.4642 54.3669 18.5586 54.3604 18.5977L51.04 18.6318ZM52.0508 16.6982C51.7773 16.6982 51.5544 16.791 51.3818 16.9766C51.2093 17.1589 51.1019 17.3997 51.0596 17.6992H52.8711C52.8711 17.3997 52.8044 17.1589 52.6709 16.9766C52.5374 16.791 52.3307 16.6982 52.0508 16.6982Z" fill="white"/>
</svg>
