<svg width="71" height="63" viewBox="0 0 71 63" fill="none" xmlns="http://www.w3.org/2000/svg">
<path d="M25.212 34.1949C27.1523 34.1949 28.7251 32.6163 28.7251 30.6691C28.7251 28.7219 27.1523 27.1434 25.212 27.1434C23.2718 27.1434 21.699 28.7219 21.699 30.6691C21.699 32.6163 23.2718 34.1949 25.212 34.1949Z" fill="black" stroke="black" stroke-width="2"/>
<path d="M45.911 29.5951C47.8512 29.5951 49.4241 28.0166 49.4241 26.0694C49.4241 24.1222 47.8512 22.5436 45.911 22.5436C43.9708 22.5436 42.3979 24.1222 42.3979 26.0694C42.3979 28.0166 43.9708 29.5951 45.911 29.5951Z" fill="black" stroke="black" stroke-width="2"/>
<path d="M69.762 27.5309C69.2997 25.5795 68.1911 23.9017 66.7986 23.0439C65.866 22.4689 64.869 22.2838 63.9157 22.5138C63.6983 22.5655 63.489 22.6448 63.2843 22.7414C60.5981 16.204 56.4077 11.9734 52.0988 9.24572L53.6628 6.11787C53.9468 5.5498 53.7168 4.85868 53.1487 4.57465C52.5784 4.29291 51.8896 4.52175 51.6055 5.08867L50.1071 8.08427C49.3976 7.70824 48.6916 7.36441 47.9947 7.05852L49.1251 3.66619C49.3263 3.06362 49.0009 2.41161 48.3983 2.21152C47.7923 2.00913 47.1437 2.33571 46.9437 2.93828L45.8535 6.20872C45.0566 5.92353 44.2827 5.67859 43.541 5.47045L44.5265 2.5151C44.7277 1.91253 44.4023 1.26052 43.7997 1.06043C43.1948 0.856885 42.5451 1.18462 42.345 1.78719L41.3009 4.91963C39.8439 4.61605 38.6031 4.44931 37.6832 4.36076V2.15402C37.6832 1.5181 37.168 1.00408 36.5332 1.00408C35.8985 1.00408 35.3833 1.5181 35.3833 2.15402V4.27911C34.7796 4.31016 33.7239 4.39411 32.3578 4.60915L31.9174 1.96658C31.8127 1.34101 31.2251 0.910933 30.5938 1.02133C29.9682 1.12597 29.5439 1.71819 29.6485 2.34376L30.0981 5.04038C28.8666 5.31751 27.5016 5.70044 26.0653 6.21332L24.974 2.94058C24.7739 2.33916 24.1242 2.01143 23.5193 2.21382C22.9168 2.41391 22.5913 3.06477 22.7926 3.66849L23.9241 7.06082C22.9317 7.4955 21.9209 8.00148 20.909 8.5822L19.1622 5.08982C18.8782 4.5229 18.1893 4.29406 17.619 4.5758C17.0509 4.85983 16.8209 5.55095 17.1049 6.11902L18.9483 9.80574C17.9352 10.4969 16.9359 11.2834 15.9642 12.1585L13.1974 9.39176C12.7478 8.94213 12.021 8.94213 11.5714 9.39176C11.1218 9.84139 11.1218 10.5681 11.5714 11.0178L14.3163 13.7627C10.7803 17.5242 7.82491 22.7713 6.46798 30.108C6.45073 30.2034 6.43923 30.3 6.42198 30.3955C6.12989 30.315 5.83321 30.2598 5.52962 30.2598C2.9894 30.2575 1 32.9978 1 36.4948C1 39.9917 2.9894 42.732 5.52962 42.732C5.99305 42.732 6.44728 42.6147 6.88311 42.425C7.68922 45.4965 9.02545 48.3806 10.8608 50.9093C14.5912 56.0518 21.9784 62.1891 35.9491 61.9522C36.1618 61.9556 36.3699 61.9568 36.5792 61.9568C50.1485 61.9556 57.3644 55.9748 61.0373 50.9104C64.3503 46.3452 66.035 40.6242 65.9016 34.7238C65.9407 34.725 65.9821 34.7399 66.0212 34.7399C66.2822 34.7399 66.541 34.71 66.794 34.6491C69.264 34.0592 70.5681 30.9325 69.762 27.5309ZM6.37483 40.0895C6.13794 40.2804 5.85046 40.4322 5.53077 40.4322C4.47513 40.4322 3.29989 38.8142 3.29989 36.4948C3.29989 34.1753 4.47513 32.5573 5.52962 32.5573C5.72166 32.5573 5.91485 32.6114 6.10919 32.7172C6.05285 33.3301 6.01605 33.943 5.9988 34.5536C5.99765 34.5927 5.9988 34.6307 5.99765 34.6698C5.985 35.1815 5.9873 35.6921 6.00225 36.2015C6.00685 36.3579 6.0126 36.5132 6.0195 36.6695C6.0379 37.0835 6.0678 37.4964 6.10459 37.9069C6.11839 38.069 6.12874 38.2312 6.14599 38.3922C6.20004 38.8958 6.26789 39.3972 6.34953 39.8951C6.35873 39.9584 6.36333 40.0251 6.37483 40.0895ZM59.1756 49.5592C54.2136 56.4003 46.4124 59.8374 35.9652 59.6511H35.9491H35.933C25.4823 59.7903 17.6834 56.3991 12.7214 49.5592C10.3502 46.2911 8.89321 42.3664 8.43668 38.2139C8.42748 38.1242 8.42518 38.0334 8.41713 37.9437C8.35158 37.2882 8.31478 36.6281 8.29984 35.9646C8.29409 35.6748 8.29869 35.3851 8.30213 35.0941C8.30673 34.6272 8.32628 34.1581 8.35618 33.6889C8.37803 33.3508 8.40103 33.0127 8.43553 32.6735C8.50912 31.9571 8.59422 31.2407 8.72646 30.5243C9.98795 23.7097 12.6777 18.8374 15.8964 15.345L17.3177 16.7663C17.5419 16.9906 17.8363 17.1033 18.1307 17.1033C18.4251 17.1033 18.7195 16.9906 18.9437 16.7663C19.3933 16.3167 19.3933 15.5899 18.9437 15.1403L17.5316 13.7282C18.3181 13.0164 19.1231 12.3713 19.9396 11.794L20.5513 13.0175C20.7526 13.4212 21.1585 13.6534 21.5817 13.6534C21.7542 13.6534 21.9301 13.6143 22.0945 13.5327C22.6626 13.2487 22.8926 12.5575 22.6086 11.9895L21.8864 10.544C22.8006 10.0104 23.7148 9.5424 24.6141 9.14222L25.089 10.567C25.25 11.0488 25.6985 11.3536 26.1803 11.3536C26.2999 11.3536 26.4229 11.334 26.5437 11.2938C27.1462 11.0937 27.4717 10.4428 27.2704 9.83909L26.7587 8.28896C28.0777 7.82094 29.3288 7.4794 30.465 7.22987L30.8008 9.24227C30.8951 9.80459 31.3815 10.2036 31.9335 10.2036C31.9956 10.2036 32.0599 10.199 32.1243 10.1875C32.7499 10.0829 33.1742 9.49065 33.0696 8.86508L32.7269 6.81474C33.9102 6.6457 34.8256 6.5859 35.3844 6.5652V9.05252C35.3844 9.68844 35.8996 10.2025 36.5344 10.2025C37.1691 10.2025 37.6843 9.68844 37.6843 9.05252V6.6273C38.4559 6.69284 39.4483 6.81704 40.5948 7.03438L40.044 8.68799C39.8428 9.29056 40.1682 9.94258 40.7708 10.1427C40.8915 10.1829 41.0146 10.2025 41.1341 10.2025C41.616 10.2025 42.0644 9.89773 42.2254 9.41591L42.8476 7.5484C43.5881 7.74734 44.3655 7.98883 45.1647 8.27286L44.6426 9.83794C44.4414 10.4405 44.7668 11.0925 45.3694 11.2926C45.4901 11.3329 45.6132 11.3524 45.7328 11.3524C46.2146 11.3524 46.6631 11.0477 46.8241 10.5658L47.3036 9.12842C47.9085 9.39866 48.5202 9.69879 49.1343 10.0288L48.1545 11.9883C47.8705 12.5564 48.1005 13.2475 48.6686 13.5315C48.8342 13.6132 49.0089 13.6523 49.1814 13.6523C49.6035 13.6523 50.0094 13.42 50.2118 13.0164L51.1168 11.2075C55.1611 13.8432 59.0721 17.9565 61.4904 24.3962L61.4812 24.4089L61.6905 24.9988C61.9907 25.8417 62.2482 26.6869 62.4828 27.5402C62.5116 27.6448 62.5415 27.7471 62.5691 27.8529C62.8002 28.7269 63.0026 29.6112 63.1705 30.5219C63.3131 31.2901 63.4085 32.0594 63.4833 32.8276C63.4959 32.9575 63.5132 33.084 63.5235 33.2151C64.0099 39.1649 62.4828 45.0009 59.1756 49.5592ZM66.2604 32.4113C66.104 32.4481 65.9373 32.4481 65.759 32.4113C65.7544 32.3653 65.7452 32.3239 65.7406 32.2791C65.6624 31.5546 65.5647 30.8301 65.4313 30.1057C65.2668 29.2191 65.0748 28.3704 64.8667 27.5436C64.8414 27.4447 64.8115 27.3481 64.785 27.2492C64.5803 26.4638 64.3549 25.7071 64.1123 24.9746C64.1054 24.9539 64.1008 24.9332 64.0939 24.9125C64.21 24.8332 64.3285 24.7791 64.4504 24.7492C64.8862 24.6457 65.314 24.8274 65.5934 25.0011C66.4651 25.5381 67.2056 26.7099 67.5253 28.0599C68.0589 30.3196 67.2873 32.1664 66.2604 32.4113Z" fill="black" stroke="black" stroke-width="2"/>
<path d="M46.9977 44.7076H23.9988C23.3641 44.7076 22.8489 45.2217 22.8489 45.8576C22.8489 46.4935 23.3641 47.0075 23.9988 47.0075H46.9977C47.6325 47.0075 48.1476 46.4935 48.1476 45.8576C48.1476 45.2217 47.6325 44.7076 46.9977 44.7076Z" fill="black" stroke="black" stroke-width="2"/>
</svg>
